<svg xmlns="http://www.w3.org/2000/svg" fill="none" viewBox="0 0 41 66" height="66" width="41">
<path fill="white" d="M37.8281 21.614C38.8592 21.614 39.6325 21.6785 40.5347 21.743V29.7434C39.6969 29.7434 38.8592 29.8725 37.8281 29.937C37.8281 30.5177 37.8281 30.9693 37.8281 31.4855C37.8281 36.1954 37.8281 40.9053 37.8281 45.6152C37.8281 50.9703 34.5415 54.2608 29.1927 54.2608C22.3618 54.2608 15.5308 54.2608 8.76426 54.2608C3.2866 54.2608 0 50.9058 0 45.4217C0 36.8406 0 28.195 0 19.6139C0 14.2588 3.35104 10.8393 8.69981 10.8393C15.5308 10.8393 22.3617 10.8393 29.1283 10.8393C34.6059 10.8393 37.8281 14.1297 37.8281 19.6784C37.8281 20.2591 37.8281 20.9043 37.8281 21.614Z"></path>
<path fill="white" d="M29.5149 0C29.966 2.25818 30.4171 4.38732 30.8682 6.58098H6.89541C7.34652 4.38732 7.86206 2.25818 8.31316 0H29.5149Z"></path>
<path fill="white" d="M30.9327 58.4546C30.4816 60.7127 30.0305 62.8419 29.5794 65.1001H8.3776C7.9265 62.9064 7.41096 60.7127 6.95986 58.4546H30.9327Z"></path>
</svg>
