<svg width="55" height="58" viewBox="0 0 55 58" fill="none" xmlns="http://www.w3.org/2000/svg">
<path d="M39.9025 58C39.5563 58 39.202 57.9256 38.8692 57.7689L17.9637 47.9535C16.3667 47.2575 3.70904 41.5861 0.480209 35.7739C-0.18005 34.5839 -0.158578 33.2823 0.539256 32.2011C1.71216 30.3841 4.55717 29.1542 14.6409 29.0453C20.7308 28.9789 27.5777 29.3774 31.1178 29.6191C35.0016 29.8847 38.6786 31.1412 41.7518 33.2504C44.7068 35.2799 46.6635 37.7291 47.5706 40.5342C49.538 46.62 53.0057 50.8623 53.0406 50.9021C53.8834 51.9222 53.7331 53.4283 52.7051 54.2651C51.6744 55.1019 50.1553 54.9558 49.3099 53.9384C49.1434 53.7391 45.2302 48.9869 42.9703 41.9899C42.3959 40.2101 41.0593 38.5924 38.998 37.1765C36.6388 35.5561 33.7991 34.5919 30.785 34.3847C27.5589 34.1642 21.2918 33.8056 15.5856 33.8162C9.70773 33.8348 6.86808 34.2518 5.53146 34.5839C8.35501 37.7795 15.5695 41.6791 19.9444 43.5838L20.0062 43.613L40.9412 53.4416C42.1463 54.0074 42.659 55.4339 42.0873 56.6266C41.6739 57.49 40.807 57.992 39.9025 57.992V58Z" fill="white"></path>
<path d="M20.0008 48.0412C20.6181 45.839 19.668 43.5997 18.6669 41.6552C17.6389 39.6496 16.2218 37.8672 15.1401 35.8908C12.907 31.9062 11.3128 27.5577 10.478 23.0604C9.99223 18.3374 10.4136 13.5559 11.3557 8.92311C11.5006 8.20323 12.2092 7.73836 12.9366 7.88181C13.6961 8.03056 14.1739 8.79295 13.9699 9.53143C12.7809 13.7578 12.0857 18.6933 12.2334 22.7975C12.754 27.1885 14.0209 31.4839 15.9319 35.4897C16.882 37.5325 18.173 39.392 19.0695 41.4666C19.9525 43.4987 20.7738 45.8523 20.0035 48.0412H20.0008Z" fill="white"></path>
<path d="M44.9913 45.3582C45.7053 43.7113 45.1953 41.9208 44.6344 40.3111C43.4615 36.5948 42.6616 32.7589 42.9757 28.8009C43.5393 23.1003 45.7133 17.6414 48.4993 12.6527C48.8616 12.0125 49.6802 11.7841 50.3271 12.1453C51.0088 12.5199 51.2208 13.4071 50.786 14.0446C47.7666 18.5579 45.2839 23.5864 44.3096 28.9523C43.7084 32.6447 44.1915 36.5337 45.0396 40.1968C45.4798 41.8598 45.8475 43.7617 44.994 45.3582H44.9913Z" fill="white"></path>
<path d="M9.97613 16.2043C9.96002 16.6213 10.2928 16.9826 10.7142 16.9986L12.6118 17.0703C13.0359 17.0862 13.4036 16.7568 13.4224 16.3398L13.5029 14.4086L10.0566 14.2731L9.97613 16.2043ZM19.6707 0.860956C18.7286 0.33499 17.6657 0.0374737 16.5814 0.00559693C13.3472 -0.12191 10.631 1.94477 10.5076 4.61179L10.0889 13.524L13.5351 13.6595L13.7632 9.15422C14.5201 9.46767 15.3334 9.643 16.152 9.67222C17.2658 9.71472 18.3501 9.50486 19.3056 9.05062C20.2477 8.60966 21.0153 7.9615 21.528 7.18318C21.5682 7.12739 21.587 7.06098 21.587 6.99723L21.7561 3.08967C21.7561 3.02592 21.74 2.95951 21.7078 2.90638C21.2623 2.08821 20.5456 1.37895 19.6653 0.874238L19.6707 0.863612V0.860956ZM16.8605 2.06696C16.8525 2.27416 16.6753 2.4362 16.4633 2.43089C15.1535 2.3751 13.5646 2.95154 13.0815 4.15223C13.0198 4.30364 12.8721 4.39396 12.7138 4.38334C12.6655 4.37802 12.6279 4.37005 12.5876 4.35411C12.3944 4.27974 12.3005 4.06191 12.3783 3.87065C13.0224 2.27681 14.9737 1.62068 16.5036 1.68709C16.7156 1.69506 16.8793 1.86773 16.8713 2.07493L16.8605 2.06962V2.06696ZM20.0411 3.53595L19.9203 6.41813C19.9122 6.62533 19.7351 6.78737 19.523 6.78206C19.311 6.77409 19.1473 6.60142 19.1553 6.39423L19.2761 3.51204C19.2842 3.30484 19.4613 3.1428 19.6734 3.14811C19.8854 3.15608 20.0491 3.32875 20.0411 3.53595Z" fill="white"></path>
<path d="M48.8885 17.8513C48.6872 18.186 48.239 18.3028 47.8981 18.101L46.3736 17.1978C46.0327 16.9959 45.9146 16.5523 46.1159 16.2149L47.0499 14.6583L49.8252 16.2946L48.8912 17.8513H48.8885ZM49.2052 0.911427C50.217 0.975181 51.2047 1.27801 52.0717 1.80132C54.6751 3.33672 55.738 6.33313 54.4577 8.48747L50.1875 15.6916L47.4123 14.0553L49.5595 10.4054C48.8026 10.2672 48.0752 9.99364 47.4177 9.60315C46.5212 9.07187 45.7804 8.35996 45.2651 7.52054C44.7551 6.69971 44.4867 5.80185 44.4867 4.93055C44.4841 4.8668 44.5055 4.8057 44.5351 4.75523L46.4192 1.60475C46.4514 1.55427 46.4997 1.51177 46.5534 1.48521C47.3237 1.06815 48.2524 0.874238 49.2052 0.924709V0.911427ZM50.786 3.27562C50.6841 3.44297 50.7404 3.6608 50.9095 3.76174C51.9643 4.38068 52.9144 5.6345 52.6756 6.82191C52.646 6.97066 52.7158 7.11677 52.8447 7.18849C52.8849 7.20708 52.9198 7.22036 52.9601 7.22833C53.1506 7.26818 53.3358 7.14333 53.3734 6.95473C53.6901 5.37948 52.5011 3.87596 51.2638 3.15608C51.0947 3.05514 50.8746 3.10827 50.7753 3.27562H50.786ZM47.5331 2.82137L46.1401 5.14306C46.0381 5.31042 46.0944 5.52824 46.2635 5.62918C46.4326 5.73013 46.6527 5.677 46.752 5.50965L48.145 3.18796C48.247 3.0206 48.1906 2.80278 48.0215 2.70184C47.8525 2.60089 47.6324 2.65402 47.5331 2.82137Z" fill="white"></path>
</svg>
